<?xml version="1.0" encoding="UTF-8"?>
<svg xmlns="http://www.w3.org/2000/svg" width="750" height="1000" viewBox="0 0 750 1000">
<g class="dragon-fill" fill="currentColor" stroke="none">
<path d="M 209,922 Z"/>
<path d="M 182,827 Z"/>
<path d="M 186,825 Z"/>
<path d="M 491,727 Z"/>
<path d="M 440,720 L 439,721 L 439,722 L 436,725 L 435,724 L 436,725 L 433,728 L 432,728 L 430,730 L 429,730 L 428,731 L 425,731 L 424,732 L 420,732 L 419,733 L 413,733 L 412,734 L 410,734 L 409,735 L 406,735 L 406,736 L 414,736 L 415,737 L 417,737 L 419,739 L 420,739 L 421,740 L 421,741 L 423,743 L 423,748 L 418,753 L 416,753 L 415,754 L 405,754 L 404,753 L 398,753 L 397,752 L 392,752 L 391,751 L 387,751 L 386,750 L 368,750 L 367,751 L 365,751 L 364,752 L 363,752 L 362,753 L 361,753 L 360,754 L 359,754 L 357,756 L 357,757 L 358,756 L 366,756 L 367,755 L 373,755 L 374,756 L 380,756 L 381,757 L 383,757 L 388,762 L 388,766 L 387,767 L 387,768 L 381,774 L 380,774 L 379,775 L 378,775 L 377,776 L 374,776 L 373,777 L 370,777 L 369,776 L 364,776 L 363,775 L 360,775 L 359,774 L 357,774 L 356,773 L 355,773 L 354,772 L 352,772 L 351,771 L 350,771 L 349,770 L 347,770 L 346,769 L 345,769 L 344,768 L 343,768 L 342,767 L 340,767 L 339,766 L 338,766 L 337,765 L 335,765 L 334,764 L 331,764 L 330,763 L 326,763 L 325,762 L 323,762 L 323,763 L 324,763 L 325,764 L 326,764 L 331,769 L 331,770 L 332,771 L 332,773 L 331,774 L 331,775 L 327,779 L 326,779 L 325,780 L 324,780 L 323,781 L 311,781 L 310,780 L 309,780 L 308,779 L 307,779 L 306,778 L 305,778 L 304,777 L 303,777 L 302,776 L 301,776 L 300,775 L 299,775 L 298,774 L 297,774 L 296,773 L 295,773 L 294,772 L 293,772 L 292,771 L 291,771 L 290,770 L 288,770 L 287,769 L 285,769 L 284,768 L 282,768 L 281,767 L 279,767 L 278,766 L 276,766 L 275,765 L 272,765 L 271,764 L 268,764 L 267,763 L 264,763 L 263,762 L 258,762 L 257,761 L 253,761 L 252,760 L 252,761 L 253,761 L 254,762 L 256,762 L 257,763 L 258,763 L 260,765 L 261,765 L 263,767 L 263,768 L 265,770 L 265,773 L 264,774 L 264,775 L 262,777 L 261,777 L 260,778 L 259,778 L 258,779 L 255,779 L 254,780 L 248,780 L 247,779 L 243,779 L 242,778 L 240,778 L 239,777 L 237,777 L 236,776 L 231,776 L 230,775 L 208,775 L 207,776 L 201,776 L 200,777 L 196,777 L 195,778 L 192,778 L 191,779 L 189,779 L 188,780 L 186,780 L 185,781 L 183,781 L 182,782 L 180,782 L 179,783 L 178,783 L 177,784 L 176,784 L 175,785 L 174,785 L 174,786 L 175,786 L 176,785 L 182,785 L 183,786 L 186,786 L 187,787 L 189,787 L 190,788 L 191,788 L 192,789 L 193,789 L 194,790 L 195,790 L 196,791 L 197,791 L 198,792 L 197,793 L 196,793 L 195,794 L 192,794 L 191,795 L 189,795 L 188,796 L 187,796 L 186,797 L 184,797 L 183,798 L 182,798 L 180,800 L 179,800 L 178,801 L 177,801 L 175,803 L 174,803 L 173,804 L 172,804 L 169,807 L 168,807 L 166,809 L 165,809 L 160,814 L 159,814 L 152,821 L 151,821 L 141,831 L 141,832 L 142,832 L 143,831 L 144,831 L 145,830 L 148,830 L 149,829 L 151,829 L 152,828 L 158,828 L 159,827 L 164,827 L 165,828 L 166,828 L 167,829 L 161,835 L 161,836 L 159,838 L 159,839 L 157,841 L 157,842 L 156,843 L 156,844 L 154,846 L 154,847 L 153,848 L 153,849 L 152,850 L 152,852 L 151,853 L 151,854 L 150,855 L 150,857 L 149,858 L 149,859 L 148,860 L 148,861 L 149,861 L 151,859 L 152,859 L 155,856 L 156,856 L 158,854 L 159,854 L 160,855 L 160,858 L 159,859 L 159,876 L 160,877 L 160,881 L 161,882 L 161,885 L 162,886 L 162,888 L 163,889 L 163,891 L 164,892 L 164,893 L 165,894 L 165,896 L 166,897 L 166,898 L 167,899 L 167,900 L 168,901 L 168,902 L 170,904 L 170,905 L 171,906 L 171,907 L 172,908 L 172,909 L 174,911 L 174,912 L 176,914 L 176,915 L 177,916 L 177,914 L 178,913 L 178,908 L 179,907 L 179,902 L 180,901 L 180,899 L 181,898 L 182,899 L 182,900 L 183,901 L 183,902 L 184,903 L 184,904 L 187,907 L 187,908 L 190,911 L 191,911 L 194,914 L 195,914 L 196,915 L 197,915 L 198,916 L 199,916 L 200,917 L 202,917 L 203,918 L 204,918 L 205,919 L 208,919 L 209,920 L 211,920 L 212,921 L 213,921 L 210,918 L 210,917 L 205,912 L 205,911 L 202,908 L 202,907 L 200,905 L 201,904 L 202,904 L 203,905 L 204,905 L 205,906 L 207,906 L 208,907 L 210,907 L 211,908 L 215,908 L 216,909 L 228,909 L 229,908 L 234,908 L 235,907 L 238,907 L 239,906 L 241,906 L 242,905 L 243,905 L 244,904 L 245,904 L 246,903 L 248,903 L 249,902 L 250,902 L 251,901 L 252,901 L 253,900 L 254,900 L 255,899 L 244,899 L 243,900 L 242,899 L 241,899 L 240,900 L 238,900 L 237,899 L 223,899 L 222,898 L 216,898 L 215,897 L 212,897 L 211,896 L 208,896 L 207,895 L 205,895 L 204,894 L 202,894 L 201,893 L 199,893 L 198,892 L 197,892 L 196,891 L 195,891 L 194,890 L 193,890 L 191,888 L 190,888 L 188,886 L 187,886 L 177,876 L 177,875 L 176,874 L 176,873 L 174,871 L 174,869 L 173,868 L 173,867 L 172,866 L 172,863 L 171,862 L 171,846 L 172,845 L 172,842 L 173,841 L 173,840 L 174,839 L 174,837 L 175,836 L 175,835 L 176,834 L 176,833 L 177,832 L 177,831 L 178,830 L 178,829 L 180,827 L 180,826 L 183,823 L 183,822 L 194,811 L 195,811 L 198,808 L 199,808 L 201,806 L 202,806 L 203,805 L 204,805 L 205,804 L 206,804 L 207,803 L 208,803 L 209,802 L 210,802 L 211,801 L 213,801 L 214,800 L 216,800 L 217,799 L 220,799 L 221,798 L 224,798 L 225,797 L 229,797 L 230,796 L 237,796 L 238,795 L 250,795 L 251,794 L 280,794 L 281,795 L 306,795 L 307,796 L 352,796 L 353,795 L 363,795 L 364,794 L 370,794 L 371,793 L 376,793 L 377,792 L 380,792 L 381,791 L 384,791 L 385,790 L 387,790 L 388,789 L 390,789 L 391,788 L 393,788 L 394,787 L 395,787 L 396,786 L 397,786 L 398,785 L 399,785 L 400,784 L 401,784 L 402,783 L 403,783 L 404,782 L 405,782 L 406,781 L 407,781 L 408,780 L 409,780 L 411,778 L 412,778 L 415,775 L 416,775 L 421,770 L 422,770 L 423,769 L 423,768 L 429,762 L 429,761 L 431,759 L 431,758 L 433,756 L 433,755 L 434,754 L 434,753 L 435,752 L 435,751 L 436,750 L 436,748 L 437,747 L 437,745 L 438,744 L 438,742 L 439,741 L 439,738 L 440,737 L 440,731 L 441,730 L 441,720 Z"/>
<path d="M 334,694 L 333,695 L 333,702 L 334,703 L 334,704 L 335,705 L 335,706 L 337,708 L 337,709 L 341,713 L 342,713 L 344,715 L 344,717 L 343,718 L 343,723 L 344,724 L 344,729 L 343,730 L 343,731 L 342,732 L 342,733 L 338,737 L 340,737 L 342,735 L 343,735 L 344,734 L 345,734 L 348,731 L 348,730 L 349,729 L 349,728 L 350,727 L 350,719 L 351,718 L 351,714 L 352,713 L 352,711 L 349,708 L 349,707 L 350,706 L 352,708 L 354,708 L 355,709 L 356,709 L 358,711 L 359,711 L 362,714 L 362,715 L 363,716 L 363,717 L 364,718 L 364,723 L 363,724 L 363,725 L 361,727 L 361,728 L 362,727 L 363,727 L 366,724 L 366,723 L 368,721 L 368,720 L 369,719 L 369,713 L 368,712 L 368,710 L 367,709 L 367,708 L 365,706 L 365,705 L 358,698 L 357,698 L 356,697 L 355,697 L 354,696 L 352,696 L 351,697 L 350,697 L 349,698 L 349,699 L 348,700 L 348,702 L 349,703 L 349,704 L 348,705 L 346,703 L 346,702 L 345,701 L 345,700 L 341,696 L 340,696 L 338,694 Z"/>
<path d="M 292,689 Z"/>
<path d="M 473,673 Z"/>
<path d="M 487,663 L 487,664 L 484,667 L 483,667 L 478,672 L 477,672 L 474,675 L 473,675 L 471,677 L 470,677 L 469,678 L 468,678 L 466,680 L 465,680 L 464,681 L 463,681 L 462,682 L 461,682 L 460,683 L 458,683 L 457,684 L 456,684 L 455,685 L 453,685 L 452,686 L 450,686 L 449,687 L 446,687 L 445,688 L 444,688 L 444,690 L 445,691 L 445,696 L 446,697 L 446,703 L 447,704 L 447,729 L 446,730 L 446,736 L 445,737 L 445,741 L 444,742 L 444,744 L 443,745 L 443,748 L 442,749 L 442,750 L 441,751 L 441,753 L 440,754 L 440,755 L 439,756 L 439,757 L 438,758 L 438,759 L 437,760 L 437,761 L 436,762 L 436,763 L 434,765 L 434,766 L 432,768 L 432,769 L 429,772 L 429,773 L 419,783 L 418,783 L 416,785 L 415,785 L 413,787 L 412,787 L 411,788 L 410,788 L 409,789 L 408,789 L 407,790 L 406,790 L 405,791 L 403,791 L 402,792 L 401,792 L 400,793 L 398,793 L 397,794 L 395,794 L 394,795 L 392,795 L 391,796 L 388,796 L 387,797 L 384,797 L 383,798 L 379,798 L 378,799 L 373,799 L 372,800 L 366,800 L 365,801 L 356,801 L 355,802 L 316,802 L 315,801 L 307,801 L 306,800 L 301,800 L 300,799 L 291,799 L 290,798 L 258,798 L 257,799 L 248,799 L 247,800 L 241,800 L 240,801 L 236,801 L 235,802 L 232,802 L 231,803 L 227,803 L 226,804 L 224,804 L 223,805 L 221,805 L 220,806 L 218,806 L 217,807 L 215,807 L 214,808 L 213,808 L 212,809 L 210,809 L 209,810 L 208,810 L 207,811 L 206,811 L 204,813 L 203,813 L 202,814 L 201,814 L 199,816 L 198,816 L 194,820 L 193,820 L 189,824 L 189,825 L 185,829 L 185,830 L 183,832 L 183,833 L 182,834 L 182,835 L 181,836 L 181,838 L 180,839 L 180,840 L 179,841 L 179,844 L 178,845 L 178,849 L 177,850 L 177,861 L 178,862 L 178,866 L 179,867 L 179,869 L 180,870 L 180,871 L 181,872 L 181,873 L 182,874 L 182,875 L 185,878 L 185,879 L 188,882 L 189,882 L 192,885 L 193,885 L 195,887 L 196,887 L 197,888 L 198,888 L 199,889 L 200,889 L 201,890 L 203,890 L 204,891 L 206,891 L 207,892 L 209,892 L 210,893 L 213,893 L 214,894 L 219,894 L 220,895 L 230,895 L 231,896 L 239,896 L 240,895 L 251,895 L 252,894 L 257,894 L 258,893 L 262,893 L 263,892 L 265,892 L 266,891 L 269,891 L 270,890 L 272,890 L 273,889 L 274,889 L 275,888 L 277,888 L 278,887 L 279,887 L 281,885 L 282,885 L 283,884 L 284,884 L 288,880 L 289,880 L 291,878 L 291,877 L 290,878 L 289,878 L 287,880 L 286,880 L 285,881 L 284,881 L 283,882 L 281,882 L 280,883 L 278,883 L 277,884 L 275,884 L 274,885 L 270,885 L 269,886 L 264,886 L 263,887 L 257,887 L 256,888 L 226,888 L 225,887 L 220,887 L 219,886 L 216,886 L 215,885 L 212,885 L 211,884 L 209,884 L 208,883 L 207,883 L 206,882 L 205,882 L 204,881 L 203,881 L 201,879 L 200,879 L 196,875 L 196,874 L 194,872 L 194,871 L 193,870 L 193,868 L 192,867 L 192,856 L 193,855 L 193,852 L 194,851 L 194,849 L 195,848 L 195,846 L 196,845 L 196,844 L 198,842 L 198,841 L 199,840 L 199,839 L 200,838 L 201,838 L 201,837 L 208,830 L 209,830 L 211,828 L 212,828 L 213,827 L 214,827 L 215,826 L 216,826 L 217,825 L 218,825 L 219,824 L 221,824 L 222,823 L 225,823 L 226,822 L 230,822 L 231,821 L 242,821 L 243,820 L 246,820 L 247,821 L 260,821 L 261,822 L 267,822 L 268,823 L 273,823 L 274,824 L 278,824 L 279,825 L 282,825 L 283,826 L 287,826 L 288,827 L 291,827 L 292,828 L 295,828 L 296,829 L 298,829 L 299,830 L 302,830 L 303,831 L 305,831 L 306,832 L 309,832 L 310,833 L 313,833 L 314,834 L 317,834 L 318,835 L 321,835 L 322,836 L 326,836 L 327,837 L 332,837 L 333,838 L 339,838 L 340,839 L 353,839 L 354,840 L 362,840 L 363,839 L 375,839 L 376,838 L 382,838 L 383,837 L 387,837 L 388,836 L 392,836 L 393,835 L 395,835 L 396,834 L 399,834 L 400,833 L 402,833 L 403,832 L 405,832 L 406,831 L 408,831 L 409,830 L 410,830 L 411,829 L 412,829 L 413,828 L 415,828 L 416,827 L 417,827 L 418,826 L 419,826 L 421,824 L 422,824 L 423,823 L 424,823 L 425,822 L 426,822 L 428,820 L 429,820 L 431,818 L 432,818 L 434,816 L 435,816 L 437,814 L 438,814 L 442,810 L 443,810 L 459,794 L 459,793 L 464,788 L 464,787 L 467,784 L 467,783 L 469,781 L 469,780 L 470,779 L 470,778 L 472,776 L 472,775 L 473,774 L 473,773 L 474,772 L 474,771 L 475,770 L 475,769 L 476,768 L 476,767 L 477,766 L 477,765 L 478,764 L 478,762 L 479,761 L 479,760 L 480,759 L 480,758 L 481,757 L 481,755 L 482,754 L 482,752 L 483,751 L 483,749 L 484,748 L 484,745 L 485,744 L 485,742 L 486,741 L 486,738 L 487,737 L 487,733 L 488,732 L 488,727 L 489,726 L 489,720 L 490,719 L 490,710 L 491,709 L 491,682 L 490,681 L 490,671 L 489,670 L 489,665 L 488,664 L 489,663 Z"/>
<path d="M 509,642 L 495,656 L 494,656 L 491,659 L 491,660 L 492,661 L 492,663 L 493,664 L 493,668 L 494,669 L 494,674 L 495,675 L 495,684 L 496,685 L 496,704 L 495,705 L 495,716 L 494,717 L 494,723 L 493,724 L 493,729 L 492,730 L 492,734 L 491,735 L 491,739 L 490,740 L 490,743 L 489,744 L 489,747 L 488,748 L 488,751 L 487,752 L 487,754 L 486,755 L 486,757 L 485,758 L 485,760 L 484,761 L 484,763 L 483,764 L 483,766 L 482,767 L 482,768 L 481,769 L 481,770 L 480,771 L 480,773 L 479,774 L 479,775 L 478,776 L 478,777 L 477,778 L 477,779 L 476,780 L 476,781 L 474,783 L 474,784 L 475,784 L 481,778 L 481,777 L 488,770 L 488,769 L 491,766 L 491,765 L 493,763 L 493,762 L 495,760 L 495,759 L 497,757 L 497,756 L 498,755 L 498,754 L 500,752 L 500,751 L 501,750 L 501,749 L 502,748 L 502,747 L 503,746 L 503,745 L 504,744 L 504,743 L 505,742 L 505,741 L 506,740 L 506,738 L 507,737 L 507,736 L 508,735 L 508,734 L 509,733 L 509,731 L 510,730 L 510,728 L 511,727 L 511,725 L 512,724 L 512,722 L 513,721 L 513,717 L 514,716 L 514,713 L 515,712 L 515,708 L 516,707 L 516,702 L 517,701 L 517,689 L 518,688 L 517,687 L 517,677 L 516,676 L 516,674 L 515,673 L 515,672 L 516,671 L 521,676 L 521,677 L 524,680 L 524,681 L 526,683 L 526,684 L 528,686 L 528,687 L 529,688 L 529,689 L 530,690 L 530,691 L 531,692 L 531,693 L 532,694 L 532,696 L 533,696 L 533,689 L 532,688 L 532,682 L 531,681 L 531,678 L 530,677 L 530,675 L 529,674 L 529,672 L 528,671 L 528,669 L 527,668 L 527,667 L 526,666 L 526,665 L 525,664 L 525,663 L 524,662 L 524,661 L 523,660 L 523,659 L 522,658 L 522,657 L 521,656 L 521,655 L 519,653 L 519,652 L 517,650 L 517,649 L 513,645 L 513,644 L 511,642 Z"/>
<path d="M 433,626 Z"/>
<path d="M 326,626 Z"/>
<path d="M 337,605 Z"/>
<path d="M 433,582 Z"/>
<path d="M 565,564 Z"/>
<path d="M 349,492 L 348,493 L 341,493 L 340,494 L 336,494 L 335,495 L 332,495 L 331,496 L 329,496 L 328,497 L 326,497 L 325,498 L 324,498 L 323,499 L 322,499 L 321,500 L 320,500 L 319,501 L 318,501 L 316,503 L 315,503 L 313,505 L 312,505 L 303,514 L 303,515 L 300,518 L 300,519 L 299,520 L 299,521 L 297,523 L 297,525 L 296,526 L 296,527 L 295,528 L 295,530 L 294,531 L 294,533 L 293,534 L 293,537 L 292,538 L 292,542 L 291,543 L 291,549 L 291,548 L 292,547 L 292,546 L 293,545 L 293,544 L 294,543 L 294,542 L 295,541 L 295,540 L 297,538 L 297,537 L 298,536 L 298,535 L 304,529 L 305,529 L 306,528 L 307,528 L 308,527 L 309,527 L 310,526 L 312,526 L 313,527 L 311,529 L 311,530 L 310,531 L 310,532 L 309,533 L 309,535 L 308,536 L 308,539 L 307,540 L 307,548 L 308,549 L 308,553 L 309,553 L 310,552 L 311,552 L 312,551 L 314,551 L 315,550 L 317,550 L 318,549 L 321,549 L 322,548 L 326,548 L 327,547 L 347,547 L 348,548 L 352,548 L 353,549 L 357,549 L 358,550 L 360,550 L 361,551 L 363,551 L 364,552 L 366,552 L 367,553 L 368,553 L 369,554 L 370,554 L 371,555 L 372,555 L 373,556 L 374,556 L 375,557 L 376,557 L 378,559 L 379,559 L 381,561 L 382,561 L 391,570 L 391,571 L 392,572 L 392,573 L 394,575 L 394,576 L 396,576 L 397,577 L 399,577 L 400,578 L 402,578 L 403,579 L 407,579 L 408,580 L 424,580 L 425,579 L 430,579 L 431,578 L 433,578 L 434,577 L 436,577 L 437,576 L 438,576 L 439,575 L 440,575 L 441,574 L 442,574 L 443,573 L 444,573 L 446,571 L 447,571 L 449,569 L 450,569 L 454,565 L 454,564 L 453,563 L 453,562 L 452,561 L 452,560 L 451,559 L 451,558 L 450,557 L 450,556 L 449,555 L 449,554 L 448,553 L 448,552 L 447,551 L 447,550 L 445,548 L 445,547 L 443,545 L 443,544 L 442,543 L 442,542 L 439,539 L 439,538 L 437,536 L 437,535 L 433,531 L 433,530 L 419,516 L 418,516 L 414,512 L 413,512 L 411,510 L 410,510 L 407,507 L 406,507 L 405,506 L 404,506 L 402,504 L 401,504 L 400,503 L 399,503 L 398,502 L 397,502 L 396,501 L 395,501 L 394,500 L 393,500 L 392,499 L 390,499 L 389,498 L 388,498 L 387,497 L 385,497 L 384,496 L 381,496 L 380,495 L 377,495 L 376,494 L 372,494 L 371,493 L 363,493 L 362,492 Z"/>
<path d="M 238,441 Z"/>
<path d="M 382,439 L 381,440 L 374,440 L 373,441 L 369,441 L 368,442 L 366,442 L 365,443 L 364,443 L 363,444 L 362,444 L 361,445 L 360,445 L 359,446 L 358,446 L 356,448 L 355,448 L 352,451 L 351,451 L 346,456 L 346,457 L 342,461 L 342,462 L 340,464 L 340,465 L 338,467 L 338,468 L 337,469 L 337,470 L 336,471 L 336,472 L 335,473 L 335,474 L 332,477 L 330,477 L 329,476 L 327,476 L 326,475 L 325,475 L 322,472 L 322,471 L 321,470 L 321,469 L 320,468 L 320,465 L 319,464 L 319,462 L 320,461 L 320,457 L 321,456 L 321,454 L 322,453 L 322,452 L 323,451 L 323,450 L 324,449 L 324,448 L 325,447 L 325,446 L 329,442 L 329,441 L 328,441 L 326,443 L 325,443 L 322,446 L 321,446 L 315,452 L 315,453 L 312,456 L 312,457 L 311,458 L 311,459 L 309,461 L 309,462 L 308,463 L 308,464 L 307,465 L 307,466 L 306,467 L 306,468 L 305,469 L 305,471 L 304,472 L 304,473 L 303,474 L 303,476 L 302,477 L 302,478 L 301,479 L 301,481 L 300,482 L 300,484 L 299,485 L 299,487 L 298,488 L 298,490 L 297,491 L 297,492 L 296,493 L 296,494 L 294,496 L 293,496 L 292,497 L 289,497 L 288,496 L 287,496 L 286,495 L 286,494 L 284,492 L 284,490 L 283,489 L 283,486 L 282,485 L 282,478 L 281,478 L 281,482 L 280,483 L 280,486 L 279,487 L 279,491 L 278,492 L 278,496 L 277,497 L 277,502 L 276,503 L 276,509 L 275,510 L 275,520 L 274,521 L 274,540 L 275,541 L 275,550 L 276,551 L 276,556 L 277,557 L 277,561 L 278,562 L 278,564 L 279,565 L 279,567 L 280,568 L 280,570 L 281,571 L 281,573 L 282,574 L 282,575 L 283,576 L 283,577 L 284,578 L 284,579 L 285,580 L 285,581 L 286,582 L 286,583 L 287,584 L 287,585 L 289,587 L 289,588 L 291,590 L 291,591 L 294,594 L 294,595 L 308,609 L 307,610 L 308,609 L 309,609 L 312,612 L 313,612 L 316,615 L 317,615 L 319,617 L 320,617 L 322,619 L 323,619 L 324,620 L 325,620 L 327,622 L 328,622 L 329,623 L 330,623 L 331,624 L 332,624 L 333,625 L 335,625 L 336,626 L 338,626 L 339,627 L 341,627 L 342,628 L 344,628 L 345,629 L 348,629 L 349,630 L 353,630 L 354,631 L 359,631 L 360,632 L 366,632 L 367,633 L 395,633 L 396,632 L 402,632 L 403,631 L 407,631 L 408,630 L 411,630 L 412,629 L 414,629 L 415,628 L 417,628 L 418,627 L 420,627 L 421,626 L 422,626 L 423,625 L 424,625 L 425,624 L 426,624 L 427,623 L 428,623 L 429,622 L 430,622 L 431,621 L 432,621 L 433,620 L 434,620 L 437,617 L 438,617 L 442,613 L 443,613 L 450,606 L 450,605 L 455,600 L 455,599 L 458,596 L 458,595 L 460,593 L 460,592 L 462,590 L 462,589 L 463,588 L 463,587 L 464,586 L 464,585 L 465,584 L 465,583 L 466,582 L 466,581 L 467,580 L 467,579 L 468,578 L 468,577 L 469,576 L 469,574 L 470,573 L 470,572 L 471,571 L 471,568 L 472,567 L 472,565 L 473,564 L 473,560 L 474,559 L 474,555 L 475,554 L 475,544 L 476,543 L 476,533 L 475,532 L 475,523 L 474,522 L 474,517 L 473,516 L 473,511 L 472,510 L 472,508 L 471,508 L 471,524 L 470,525 L 470,529 L 469,530 L 469,533 L 468,534 L 468,536 L 467,537 L 467,538 L 466,539 L 466,540 L 465,541 L 465,542 L 464,543 L 464,544 L 463,545 L 463,546 L 456,553 L 455,553 L 454,554 L 451,554 L 452,555 L 452,556 L 453,556 L 454,557 L 455,557 L 456,558 L 458,558 L 459,559 L 462,559 L 463,560 L 464,559 L 465,559 L 466,560 L 466,561 L 464,563 L 464,564 L 461,567 L 461,568 L 456,573 L 455,573 L 452,576 L 451,576 L 450,577 L 449,577 L 447,579 L 446,579 L 445,580 L 444,580 L 443,581 L 441,581 L 440,582 L 439,582 L 438,583 L 435,583 L 434,584 L 432,584 L 431,585 L 427,585 L 426,586 L 409,586 L 408,585 L 404,585 L 403,584 L 401,584 L 400,583 L 399,583 L 398,582 L 397,582 L 396,581 L 395,581 L 394,580 L 394,581 L 395,582 L 395,583 L 396,584 L 396,585 L 398,587 L 398,588 L 404,594 L 405,594 L 407,596 L 408,596 L 409,597 L 410,597 L 411,598 L 412,598 L 413,599 L 415,599 L 416,600 L 419,600 L 420,601 L 424,601 L 425,602 L 430,602 L 432,604 L 429,607 L 428,607 L 427,608 L 426,608 L 425,609 L 411,609 L 410,608 L 408,608 L 407,607 L 405,607 L 404,606 L 402,606 L 401,605 L 400,605 L 399,604 L 398,604 L 397,603 L 396,603 L 395,602 L 394,602 L 393,601 L 392,601 L 391,600 L 390,600 L 388,598 L 387,598 L 385,596 L 384,596 L 381,593 L 380,593 L 370,583 L 369,583 L 370,584 L 370,585 L 371,586 L 371,588 L 372,589 L 372,590 L 373,591 L 373,593 L 375,595 L 375,596 L 376,597 L 376,598 L 378,600 L 378,601 L 381,604 L 381,605 L 383,607 L 383,608 L 385,610 L 385,611 L 386,612 L 386,613 L 387,614 L 385,616 L 381,616 L 380,615 L 378,615 L 376,613 L 375,613 L 369,607 L 369,606 L 368,606 L 365,603 L 365,602 L 363,600 L 363,599 L 361,597 L 361,596 L 359,594 L 359,593 L 358,592 L 358,591 L 356,589 L 356,588 L 355,587 L 355,586 L 354,585 L 354,584 L 353,583 L 353,582 L 352,581 L 352,580 L 351,579 L 351,578 L 350,577 L 350,576 L 349,575 L 349,574 L 348,573 L 348,572 L 347,571 L 347,570 L 346,569 L 346,567 L 345,567 L 345,569 L 344,570 L 344,572 L 343,573 L 343,590 L 344,591 L 344,595 L 345,596 L 345,600 L 346,601 L 346,606 L 344,608 L 338,608 L 337,607 L 336,607 L 331,602 L 331,601 L 330,600 L 330,599 L 329,598 L 329,597 L 328,596 L 328,595 L 327,594 L 327,591 L 326,590 L 326,587 L 325,586 L 325,582 L 324,581 L 324,572 L 323,571 L 323,559 L 324,558 L 324,556 L 323,557 L 323,558 L 322,559 L 322,561 L 321,562 L 321,564 L 320,565 L 320,568 L 319,569 L 319,575 L 318,576 L 318,591 L 317,592 L 317,593 L 316,594 L 314,594 L 307,587 L 307,586 L 306,585 L 306,584 L 305,583 L 305,581 L 304,580 L 304,578 L 303,577 L 303,573 L 302,572 L 302,547 L 303,546 L 303,541 L 302,541 L 302,542 L 300,544 L 300,545 L 299,546 L 299,547 L 298,548 L 298,550 L 297,551 L 297,553 L 296,554 L 296,558 L 295,559 L 295,562 L 294,563 L 293,563 L 291,561 L 291,560 L 290,559 L 290,558 L 289,557 L 289,555 L 288,554 L 288,549 L 287,548 L 287,539 L 288,538 L 288,533 L 289,532 L 289,529 L 290,528 L 290,526 L 291,525 L 291,524 L 292,523 L 292,521 L 293,520 L 293,519 L 294,518 L 294,517 L 296,515 L 296,514 L 298,512 L 298,511 L 301,508 L 301,507 L 305,503 L 306,503 L 309,500 L 310,500 L 312,498 L 313,498 L 314,497 L 315,497 L 316,496 L 317,496 L 318,495 L 319,495 L 320,494 L 321,494 L 322,493 L 324,493 L 325,492 L 326,492 L 327,491 L 329,491 L 330,490 L 333,490 L 334,489 L 337,489 L 338,488 L 342,488 L 343,487 L 351,487 L 352,486 L 360,486 L 361,487 L 369,487 L 370,488 L 375,488 L 376,489 L 378,489 L 379,490 L 382,490 L 383,491 L 385,491 L 386,492 L 388,492 L 389,493 L 390,493 L 391,494 L 392,494 L 393,495 L 395,495 L 396,496 L 397,496 L 398,497 L 399,497 L 401,499 L 402,499 L 403,500 L 404,500 L 405,501 L 406,501 L 407,502 L 408,502 L 410,504 L 411,504 L 413,506 L 414,506 L 416,508 L 417,508 L 421,512 L 422,512 L 427,517 L 428,517 L 445,534 L 445,535 L 450,540 L 450,541 L 452,543 L 452,544 L 454,544 L 453,543 L 453,541 L 454,540 L 454,536 L 453,535 L 453,530 L 452,529 L 452,527 L 451,526 L 451,525 L 450,524 L 450,523 L 448,521 L 448,520 L 445,517 L 445,516 L 442,513 L 441,513 L 438,510 L 437,510 L 435,508 L 435,507 L 437,505 L 438,505 L 439,504 L 440,504 L 441,503 L 443,503 L 444,502 L 449,502 L 450,501 L 458,501 L 458,500 L 457,500 L 456,499 L 455,499 L 454,498 L 452,498 L 451,497 L 447,497 L 446,496 L 439,496 L 438,495 L 427,495 L 426,494 L 420,494 L 419,493 L 418,493 L 414,489 L 414,487 L 415,486 L 415,485 L 419,481 L 420,481 L 422,479 L 423,479 L 424,478 L 426,478 L 427,477 L 428,477 L 429,476 L 430,476 L 431,475 L 433,475 L 434,474 L 436,474 L 437,473 L 440,473 L 441,472 L 437,472 L 436,471 L 420,471 L 419,472 L 415,472 L 414,473 L 413,473 L 412,474 L 410,474 L 409,475 L 408,475 L 407,476 L 406,476 L 403,479 L 402,479 L 401,480 L 400,480 L 399,481 L 398,481 L 397,482 L 390,482 L 387,479 L 387,477 L 388,476 L 388,475 L 390,473 L 390,472 L 394,468 L 395,468 L 398,465 L 399,465 L 400,464 L 401,464 L 402,463 L 403,463 L 404,462 L 405,462 L 406,461 L 407,461 L 408,460 L 410,460 L 411,459 L 413,459 L 414,458 L 418,458 L 418,457 L 414,457 L 413,456 L 403,456 L 402,457 L 398,457 L 397,458 L 395,458 L 394,459 L 392,459 L 391,460 L 390,460 L 389,461 L 388,461 L 387,462 L 386,462 L 385,463 L 384,463 L 383,464 L 382,464 L 381,465 L 380,465 L 379,466 L 378,466 L 376,468 L 375,468 L 374,469 L 373,469 L 372,470 L 371,470 L 370,471 L 369,471 L 368,472 L 366,472 L 365,473 L 363,473 L 362,474 L 357,474 L 355,472 L 355,467 L 356,466 L 356,464 L 357,463 L 357,462 L 358,461 L 358,460 L 361,457 L 361,456 L 366,451 L 367,451 L 371,447 L 372,447 L 374,445 L 375,445 L 377,443 L 378,443 L 379,442 L 380,442 L 381,441 L 382,441 L 383,440 L 383,439 Z"/>
<path d="M 237,420 L 234,423 L 234,428 L 235,429 L 235,431 L 236,432 L 236,434 L 237,435 L 237,436 L 238,437 L 238,438 L 240,440 L 240,441 L 243,444 L 243,445 L 246,448 L 247,448 L 250,451 L 251,451 L 252,452 L 253,452 L 254,453 L 255,453 L 256,454 L 258,454 L 259,455 L 268,455 L 269,454 L 270,454 L 271,453 L 272,453 L 272,452 L 271,452 L 270,453 L 264,453 L 263,452 L 262,452 L 261,451 L 260,451 L 259,450 L 258,450 L 254,446 L 254,445 L 252,443 L 252,442 L 250,440 L 250,439 L 249,438 L 249,437 L 248,436 L 248,435 L 247,434 L 247,432 L 246,431 L 246,429 L 245,428 L 245,427 L 244,426 L 244,425 L 240,421 L 239,421 L 238,420 Z"/>
<path d="M 246,412 L 246,413 L 245,414 L 245,418 L 246,419 L 246,420 L 247,421 L 247,422 L 249,424 L 249,425 L 251,427 L 251,428 L 257,434 L 258,434 L 260,436 L 261,436 L 262,437 L 263,437 L 264,438 L 265,438 L 266,439 L 267,439 L 268,440 L 272,440 L 273,441 L 277,441 L 278,440 L 281,440 L 282,439 L 283,439 L 284,438 L 285,438 L 286,437 L 286,436 L 285,436 L 284,437 L 283,437 L 282,438 L 277,438 L 276,437 L 274,437 L 273,436 L 272,436 L 269,433 L 268,433 L 266,431 L 266,430 L 262,426 L 262,425 L 260,423 L 260,422 L 258,420 L 258,419 L 255,416 L 255,415 L 254,415 L 251,412 Z"/>
<path d="M 267,396 L 272,401 L 272,402 L 273,403 L 273,404 L 274,405 L 274,409 L 273,410 L 268,410 L 267,411 L 262,411 L 261,410 L 261,411 L 262,412 L 263,412 L 265,414 L 267,414 L 268,415 L 272,415 L 273,416 L 278,416 L 279,417 L 280,417 L 281,418 L 282,418 L 286,422 L 286,423 L 287,424 L 287,426 L 288,426 L 288,424 L 287,423 L 287,420 L 286,419 L 286,416 L 285,415 L 285,414 L 284,413 L 284,411 L 283,410 L 283,409 L 281,407 L 281,406 L 274,399 L 273,399 L 271,397 L 270,397 L 269,396 Z"/>
<path d="M 310,387 Z"/>
<path d="M 276,357 L 278,359 Z"/>
<path d="M 264,343 L 263,344 L 263,355 L 264,356 L 264,359 L 265,360 L 265,362 L 266,363 L 266,366 L 267,367 L 267,376 L 264,379 L 261,379 L 260,380 L 258,380 L 257,381 L 256,381 L 255,382 L 253,382 L 252,383 L 251,383 L 250,384 L 248,384 L 247,385 L 246,385 L 245,386 L 244,386 L 242,388 L 241,388 L 240,389 L 239,389 L 237,391 L 236,391 L 230,397 L 230,398 L 229,399 L 229,401 L 228,402 L 228,403 L 229,404 L 229,406 L 228,407 L 224,407 L 220,411 L 220,419 L 221,420 L 221,421 L 222,422 L 222,423 L 221,424 L 220,424 L 217,427 L 217,433 L 218,434 L 218,435 L 219,436 L 219,437 L 220,438 L 220,439 L 224,443 L 224,444 L 226,446 L 227,446 L 228,445 L 229,446 L 229,447 L 230,448 L 230,449 L 232,451 L 232,452 L 240,460 L 241,460 L 242,461 L 244,461 L 245,462 L 255,462 L 255,461 L 252,461 L 251,460 L 249,460 L 248,459 L 247,459 L 246,458 L 245,458 L 240,453 L 240,452 L 239,451 L 239,449 L 238,448 L 238,447 L 237,446 L 237,444 L 236,443 L 236,441 L 235,440 L 235,439 L 231,435 L 229,435 L 227,437 L 227,442 L 228,443 L 228,445 L 227,446 L 226,445 L 226,444 L 225,443 L 225,435 L 227,433 L 229,433 L 230,432 L 231,432 L 232,433 L 233,433 L 233,432 L 232,431 L 232,429 L 231,428 L 231,425 L 232,424 L 232,422 L 233,421 L 233,420 L 234,419 L 235,419 L 236,418 L 242,418 L 242,415 L 241,414 L 242,413 L 242,410 L 245,407 L 246,407 L 247,406 L 260,406 L 261,407 L 267,407 L 268,408 L 269,408 L 270,407 L 271,407 L 271,405 L 270,404 L 270,403 L 264,397 L 263,397 L 259,393 L 258,393 L 256,391 L 257,390 L 266,390 L 267,389 L 271,389 L 272,388 L 274,388 L 275,387 L 277,387 L 278,386 L 280,386 L 281,385 L 282,385 L 283,384 L 285,384 L 287,382 L 288,382 L 289,381 L 290,381 L 293,378 L 293,377 L 290,374 L 289,374 L 278,363 L 278,362 L 274,358 L 274,357 L 271,354 L 271,353 L 269,351 L 269,350 L 267,348 L 267,347 L 265,345 L 265,344 Z"/>
<path d="M 384,341 L 385,342 L 385,343 L 387,343 L 388,344 L 389,344 L 390,345 L 391,345 L 393,347 L 394,347 L 395,348 L 396,348 L 397,349 L 398,349 L 399,350 L 400,350 L 401,351 L 402,351 L 403,352 L 404,352 L 405,353 L 406,353 L 407,354 L 408,354 L 409,355 L 410,355 L 412,357 L 413,357 L 414,358 L 415,358 L 416,359 L 417,359 L 418,360 L 419,360 L 420,361 L 421,361 L 422,362 L 423,362 L 424,363 L 425,363 L 426,364 L 427,364 L 428,365 L 429,365 L 430,366 L 431,366 L 433,368 L 434,368 L 435,369 L 436,369 L 437,370 L 438,370 L 439,371 L 440,371 L 441,372 L 442,372 L 443,373 L 444,373 L 446,375 L 447,375 L 448,376 L 449,376 L 451,378 L 452,378 L 453,379 L 454,379 L 456,381 L 457,381 L 459,383 L 460,383 L 461,384 L 462,384 L 464,386 L 465,386 L 467,388 L 468,388 L 471,391 L 472,391 L 475,394 L 476,394 L 479,397 L 480,397 L 485,402 L 486,402 L 504,420 L 504,421 L 508,425 L 508,426 L 511,429 L 511,430 L 513,432 L 513,433 L 516,436 L 516,437 L 517,438 L 517,439 L 519,441 L 519,442 L 520,443 L 520,444 L 522,446 L 522,447 L 523,448 L 523,449 L 524,450 L 524,451 L 525,452 L 525,453 L 526,454 L 526,456 L 527,457 L 527,458 L 528,459 L 528,460 L 529,461 L 529,462 L 530,463 L 530,465 L 531,466 L 531,467 L 532,468 L 532,469 L 533,470 L 533,472 L 534,473 L 534,474 L 535,475 L 535,476 L 536,477 L 536,479 L 537,480 L 537,481 L 538,482 L 538,484 L 539,485 L 539,487 L 540,488 L 540,490 L 541,491 L 541,494 L 542,495 L 542,497 L 543,498 L 543,501 L 544,502 L 544,506 L 545,507 L 545,512 L 546,513 L 546,519 L 547,520 L 547,527 L 548,528 L 548,564 L 547,565 L 547,573 L 546,574 L 546,579 L 545,580 L 545,584 L 544,585 L 544,589 L 543,590 L 543,593 L 542,594 L 542,596 L 541,597 L 541,599 L 540,600 L 540,601 L 539,602 L 539,603 L 538,604 L 539,604 L 541,602 L 541,601 L 544,598 L 544,597 L 546,595 L 546,594 L 547,593 L 547,592 L 549,590 L 549,588 L 550,587 L 550,586 L 551,585 L 551,583 L 552,582 L 552,581 L 553,580 L 553,578 L 554,577 L 554,575 L 555,574 L 555,572 L 556,571 L 556,568 L 557,567 L 557,566 L 558,565 L 558,563 L 559,562 L 559,561 L 562,558 L 563,559 L 564,559 L 566,561 L 566,562 L 567,563 L 567,564 L 568,565 L 568,566 L 569,567 L 569,568 L 570,569 L 570,570 L 571,571 L 571,572 L 572,573 L 572,574 L 573,574 L 573,572 L 572,571 L 572,558 L 571,557 L 571,554 L 570,553 L 570,550 L 569,549 L 569,547 L 568,546 L 568,545 L 567,544 L 567,543 L 566,542 L 566,541 L 565,540 L 565,539 L 564,538 L 564,537 L 562,535 L 562,534 L 561,533 L 561,532 L 559,530 L 559,529 L 558,528 L 558,527 L 557,526 L 557,525 L 556,524 L 556,523 L 555,522 L 555,521 L 554,520 L 554,518 L 553,517 L 553,509 L 557,505 L 566,505 L 567,506 L 569,506 L 570,507 L 571,507 L 573,509 L 574,509 L 576,511 L 577,511 L 576,510 L 576,509 L 575,508 L 575,506 L 574,505 L 574,504 L 573,503 L 573,502 L 572,501 L 572,500 L 570,498 L 570,497 L 567,494 L 567,493 L 565,491 L 564,491 L 561,488 L 560,488 L 558,486 L 557,486 L 555,484 L 554,484 L 552,482 L 551,482 L 549,480 L 548,480 L 542,474 L 542,473 L 540,471 L 540,470 L 539,469 L 539,468 L 538,467 L 538,461 L 539,460 L 539,459 L 540,458 L 541,458 L 543,456 L 546,456 L 547,455 L 554,455 L 555,456 L 558,456 L 559,457 L 560,457 L 561,458 L 562,458 L 564,460 L 565,460 L 565,459 L 563,457 L 563,456 L 560,453 L 560,452 L 552,444 L 551,444 L 549,442 L 548,442 L 547,441 L 546,441 L 545,440 L 544,440 L 543,439 L 542,439 L 541,438 L 539,438 L 538,437 L 536,437 L 535,436 L 534,436 L 533,435 L 532,435 L 531,434 L 530,434 L 529,433 L 528,433 L 527,432 L 526,432 L 524,430 L 523,430 L 520,427 L 519,427 L 513,421 L 513,420 L 510,417 L 510,416 L 509,415 L 509,413 L 508,412 L 508,408 L 509,407 L 509,406 L 512,403 L 513,403 L 514,402 L 522,402 L 523,403 L 525,403 L 526,404 L 527,404 L 528,405 L 529,405 L 530,406 L 531,406 L 537,412 L 537,411 L 536,410 L 536,409 L 535,408 L 535,407 L 534,406 L 534,405 L 533,404 L 533,403 L 530,400 L 530,399 L 527,396 L 526,396 L 523,393 L 522,393 L 520,391 L 519,391 L 518,390 L 517,390 L 516,389 L 515,389 L 514,388 L 513,388 L 512,387 L 510,387 L 509,386 L 508,386 L 507,385 L 505,385 L 504,384 L 502,384 L 501,383 L 500,383 L 499,382 L 497,382 L 496,381 L 493,381 L 492,380 L 490,380 L 489,379 L 487,379 L 486,378 L 484,378 L 483,377 L 480,377 L 479,376 L 477,376 L 476,375 L 474,375 L 473,374 L 471,374 L 470,373 L 468,373 L 467,372 L 465,372 L 464,371 L 462,371 L 461,370 L 459,370 L 458,369 L 456,369 L 455,368 L 453,368 L 452,367 L 451,367 L 450,366 L 449,366 L 448,365 L 447,365 L 446,364 L 445,364 L 444,363 L 443,363 L 441,361 L 440,361 L 439,360 L 439,359 L 438,358 L 438,356 L 440,354 L 441,354 L 442,353 L 444,353 L 445,352 L 451,352 L 452,351 L 455,351 L 456,352 L 463,352 L 464,353 L 466,353 L 467,354 L 468,354 L 464,350 L 463,350 L 461,348 L 460,348 L 459,347 L 458,347 L 457,346 L 456,346 L 455,345 L 454,345 L 453,344 L 450,344 L 449,343 L 446,343 L 445,342 L 437,342 L 436,341 L 426,341 L 425,342 L 413,342 L 412,343 L 399,343 L 398,344 L 394,344 L 393,343 L 388,343 L 387,342 L 386,342 L 385,341 Z"/>
<path d="M 259,332 Z"/>
<path d="M 238,324 Z"/>
<path d="M 362,301 L 362,304 L 361,305 L 361,310 L 362,311 L 362,315 L 363,316 L 363,318 L 364,319 L 364,320 L 365,321 L 365,322 L 367,324 L 367,325 L 369,327 L 369,328 L 376,335 L 377,335 L 377,334 L 376,333 L 377,332 L 376,333 L 374,331 L 374,330 L 373,329 L 373,323 L 374,322 L 374,320 L 375,319 L 375,318 L 376,317 L 376,316 L 377,315 L 377,313 L 378,312 L 378,309 L 379,308 L 379,304 L 378,304 L 377,305 L 377,306 L 374,309 L 374,310 L 370,314 L 369,314 L 365,310 L 365,309 L 364,308 L 364,306 L 363,305 L 363,302 Z"/>
<path d="M 387,292 L 386,293 L 386,294 L 385,295 L 385,300 L 386,301 L 386,303 L 387,304 L 387,306 L 388,307 L 388,308 L 389,309 L 389,310 L 390,311 L 390,313 L 391,314 L 391,316 L 392,317 L 392,320 L 393,321 L 393,331 L 392,332 L 392,333 L 391,334 L 391,335 L 388,338 L 387,338 L 386,339 L 388,339 L 389,338 L 390,338 L 396,332 L 396,331 L 397,330 L 397,329 L 398,328 L 398,326 L 399,325 L 399,322 L 400,321 L 400,312 L 399,311 L 399,307 L 398,306 L 398,304 L 397,303 L 397,301 L 396,300 L 396,299 L 395,298 L 395,297 L 392,294 L 392,293 L 391,293 L 390,292 Z"/>
<path d="M 200,291 Z"/>
<path d="M 417,289 L 416,290 L 416,291 L 415,292 L 415,294 L 416,295 L 416,296 L 417,297 L 417,298 L 419,300 L 419,301 L 423,305 L 423,306 L 425,308 L 425,309 L 426,310 L 426,312 L 427,313 L 427,320 L 426,321 L 426,323 L 425,324 L 425,325 L 424,326 L 424,327 L 426,325 L 426,324 L 429,321 L 429,320 L 430,319 L 430,317 L 431,316 L 431,307 L 430,306 L 430,304 L 429,303 L 429,301 L 428,300 L 428,299 L 427,298 L 427,297 L 425,295 L 425,294 L 421,290 L 420,290 L 419,289 Z"/>
<path d="M 400,288 L 399,289 L 399,296 L 400,297 L 400,298 L 402,300 L 402,301 L 401,302 L 402,301 L 405,304 L 405,305 L 407,307 L 407,308 L 408,309 L 408,310 L 410,312 L 410,314 L 411,315 L 411,316 L 412,317 L 412,320 L 413,321 L 413,326 L 412,327 L 412,329 L 411,330 L 411,331 L 410,332 L 410,333 L 408,335 L 408,336 L 409,335 L 410,335 L 415,330 L 415,329 L 416,328 L 416,327 L 417,326 L 417,323 L 418,322 L 418,311 L 417,310 L 417,306 L 416,305 L 416,304 L 415,303 L 415,301 L 414,300 L 414,299 L 412,297 L 412,296 L 411,295 L 411,294 L 406,289 L 405,289 L 404,288 Z"/>
<path d="M 317,262 L 317,263 L 318,264 L 318,267 L 319,268 L 319,271 L 320,272 L 320,275 L 321,276 L 321,277 L 322,278 L 322,280 L 323,281 L 323,283 L 324,284 L 324,285 L 325,286 L 325,287 L 326,288 L 326,290 L 327,291 L 327,292 L 328,293 L 328,294 L 330,296 L 330,297 L 331,298 L 331,299 L 333,301 L 333,302 L 336,305 L 336,306 L 338,308 L 339,308 L 341,310 L 343,310 L 344,311 L 345,310 L 347,310 L 348,309 L 349,309 L 358,300 L 358,299 L 360,297 L 360,296 L 362,294 L 362,293 L 363,292 L 363,291 L 364,290 L 364,289 L 365,288 L 366,289 L 366,303 L 367,304 L 367,308 L 369,310 L 370,310 L 372,308 L 372,307 L 373,306 L 373,305 L 374,304 L 374,303 L 375,302 L 375,301 L 376,300 L 376,298 L 377,297 L 377,296 L 378,295 L 378,294 L 384,288 L 390,288 L 391,289 L 392,289 L 394,291 L 396,291 L 396,289 L 399,286 L 400,286 L 401,285 L 403,285 L 404,286 L 406,286 L 407,287 L 408,287 L 411,290 L 411,291 L 412,292 L 413,292 L 413,291 L 414,290 L 414,289 L 416,287 L 420,287 L 421,288 L 422,288 L 427,293 L 427,294 L 427,291 L 426,290 L 426,288 L 425,287 L 425,285 L 424,284 L 424,283 L 422,281 L 422,280 L 419,277 L 418,277 L 417,276 L 412,276 L 411,277 L 410,277 L 408,275 L 408,274 L 406,272 L 405,272 L 403,270 L 401,270 L 400,269 L 398,269 L 397,270 L 396,270 L 392,274 L 390,272 L 390,271 L 389,271 L 387,269 L 385,269 L 384,268 L 380,268 L 379,269 L 377,269 L 376,270 L 375,270 L 374,271 L 373,271 L 372,272 L 371,272 L 370,273 L 369,273 L 366,276 L 365,276 L 361,280 L 360,280 L 354,286 L 354,287 L 350,291 L 347,291 L 346,290 L 345,290 L 344,289 L 343,289 L 334,280 L 334,279 L 331,276 L 331,275 L 327,271 L 327,270 L 321,264 L 320,264 L 318,262 Z"/>
<path d="M 259,213 Z"/>
<path d="M 419,207 Z"/>
<path d="M 585,206 Z"/>
<path d="M 457,206 Z"/>
<path d="M 360,187 Z"/>
<path d="M 362,164 Z"/>
<path d="M 361,147 Z"/>
<path d="M 339,138 L 338,139 L 337,139 L 336,140 L 335,140 L 334,141 L 333,141 L 332,142 L 331,142 L 330,143 L 329,143 L 327,145 L 326,145 L 325,146 L 324,146 L 323,147 L 322,147 L 320,149 L 319,149 L 318,150 L 317,150 L 315,152 L 314,152 L 312,154 L 311,154 L 308,157 L 307,157 L 304,160 L 303,160 L 299,164 L 298,164 L 280,182 L 280,183 L 276,187 L 276,188 L 274,190 L 274,191 L 272,193 L 272,194 L 270,196 L 270,197 L 268,199 L 268,200 L 267,201 L 267,202 L 266,203 L 266,204 L 265,205 L 265,206 L 264,207 L 264,208 L 263,209 L 263,210 L 262,211 L 262,212 L 261,213 L 261,214 L 260,215 L 260,217 L 259,218 L 259,220 L 258,221 L 258,223 L 257,224 L 257,226 L 256,227 L 256,230 L 255,231 L 255,234 L 254,235 L 254,238 L 253,239 L 253,243 L 252,244 L 252,248 L 251,249 L 251,254 L 250,255 L 250,262 L 249,263 L 249,294 L 250,295 L 250,300 L 251,301 L 251,305 L 252,306 L 252,309 L 253,310 L 253,313 L 254,314 L 254,316 L 255,317 L 255,319 L 256,320 L 256,321 L 257,322 L 257,324 L 258,325 L 258,326 L 259,327 L 259,328 L 260,329 L 260,330 L 261,331 L 261,332 L 262,333 L 262,334 L 264,336 L 264,337 L 265,338 L 265,339 L 267,341 L 267,342 L 269,344 L 269,345 L 272,348 L 272,349 L 275,352 L 275,353 L 281,359 L 281,360 L 291,370 L 292,370 L 299,377 L 300,377 L 303,380 L 304,380 L 306,382 L 307,382 L 309,384 L 310,384 L 312,386 L 313,386 L 314,387 L 315,387 L 316,388 L 317,388 L 319,390 L 320,390 L 321,391 L 322,391 L 323,392 L 324,392 L 325,393 L 326,393 L 328,395 L 329,395 L 330,396 L 331,396 L 332,397 L 333,397 L 334,398 L 335,398 L 336,399 L 337,399 L 338,400 L 339,400 L 340,401 L 341,401 L 342,402 L 343,402 L 344,403 L 346,403 L 347,404 L 348,404 L 349,405 L 350,405 L 351,406 L 352,406 L 353,407 L 354,407 L 355,408 L 357,408 L 358,409 L 359,409 L 360,410 L 361,410 L 362,411 L 363,411 L 364,412 L 366,412 L 367,413 L 368,413 L 369,414 L 370,414 L 371,415 L 372,415 L 373,416 L 375,416 L 376,417 L 377,417 L 378,418 L 379,418 L 380,419 L 381,419 L 382,420 L 384,420 L 385,421 L 386,421 L 387,422 L 388,422 L 389,423 L 391,423 L 392,424 L 393,424 L 394,425 L 395,425 L 396,426 L 397,426 L 398,427 L 400,427 L 401,428 L 402,428 L 403,429 L 404,429 L 405,430 L 406,430 L 407,431 L 408,431 L 409,432 L 410,432 L 411,433 L 412,433 L 413,434 L 414,434 L 415,435 L 416,435 L 417,436 L 418,436 L 419,437 L 420,437 L 421,438 L 422,438 L 423,439 L 424,439 L 425,440 L 426,440 L 427,441 L 428,441 L 430,443 L 431,443 L 432,444 L 433,444 L 435,446 L 436,446 L 438,448 L 439,448 L 441,450 L 442,450 L 454,462 L 454,463 L 457,466 L 457,467 L 460,470 L 460,471 L 462,473 L 462,474 L 463,475 L 463,476 L 465,478 L 465,479 L 466,480 L 466,481 L 467,482 L 467,483 L 468,484 L 468,485 L 469,486 L 469,487 L 470,488 L 470,489 L 471,490 L 471,491 L 472,492 L 472,494 L 473,495 L 473,496 L 474,497 L 474,499 L 475,500 L 475,502 L 476,503 L 476,505 L 477,506 L 477,508 L 478,509 L 478,512 L 479,513 L 479,516 L 480,517 L 480,521 L 481,522 L 481,529 L 482,530 L 482,555 L 481,556 L 481,562 L 480,563 L 480,567 L 479,568 L 479,571 L 478,572 L 478,574 L 477,575 L 477,577 L 476,578 L 476,580 L 475,581 L 475,582 L 474,583 L 474,585 L 473,586 L 473,587 L 472,588 L 472,589 L 471,590 L 471,591 L 470,592 L 470,593 L 468,595 L 468,596 L 467,597 L 467,598 L 465,600 L 465,601 L 462,604 L 462,605 L 447,620 L 446,620 L 443,623 L 442,623 L 440,625 L 439,625 L 437,627 L 436,627 L 435,628 L 434,628 L 432,630 L 431,630 L 430,631 L 429,631 L 428,632 L 426,632 L 425,633 L 424,633 L 423,634 L 422,634 L 421,635 L 419,635 L 418,636 L 416,636 L 415,637 L 413,637 L 412,638 L 410,638 L 409,639 L 407,639 L 406,640 L 403,640 L 402,641 L 398,641 L 397,642 L 392,642 L 391,643 L 362,643 L 361,642 L 356,642 L 355,641 L 351,641 L 350,640 L 347,640 L 346,639 L 344,639 L 343,638 L 340,638 L 339,637 L 338,637 L 337,636 L 335,636 L 334,635 L 332,635 L 331,634 L 330,634 L 329,633 L 328,633 L 327,632 L 326,632 L 325,631 L 324,631 L 323,630 L 322,630 L 321,629 L 320,629 L 319,628 L 318,628 L 317,627 L 316,627 L 314,625 L 313,625 L 311,623 L 310,623 L 307,620 L 306,620 L 301,615 L 300,615 L 291,606 L 291,605 L 286,600 L 286,599 L 284,597 L 284,596 L 282,594 L 282,593 L 280,591 L 280,590 L 279,589 L 279,588 L 278,587 L 278,586 L 277,585 L 277,584 L 276,583 L 276,582 L 275,581 L 275,580 L 274,579 L 274,578 L 273,577 L 273,576 L 272,575 L 272,573 L 271,572 L 271,570 L 270,569 L 270,567 L 269,566 L 269,563 L 268,562 L 268,559 L 267,558 L 267,553 L 266,552 L 266,541 L 265,540 L 265,534 L 266,533 L 266,522 L 267,521 L 267,517 L 256,528 L 256,529 L 254,531 L 254,532 L 252,534 L 252,535 L 251,536 L 251,537 L 250,538 L 250,539 L 249,540 L 249,542 L 248,543 L 248,545 L 247,546 L 247,548 L 246,549 L 246,554 L 245,555 L 245,573 L 246,574 L 246,579 L 247,580 L 247,584 L 248,585 L 248,588 L 249,589 L 249,591 L 250,592 L 250,594 L 251,595 L 251,597 L 252,598 L 252,599 L 253,600 L 253,602 L 254,603 L 254,605 L 255,606 L 255,607 L 256,608 L 256,609 L 257,610 L 257,611 L 258,612 L 258,613 L 259,614 L 259,615 L 260,616 L 260,617 L 261,618 L 261,619 L 262,620 L 262,621 L 264,623 L 264,624 L 265,625 L 265,626 L 267,628 L 267,629 L 269,631 L 269,632 L 271,634 L 271,635 L 274,638 L 274,639 L 282,647 L 282,648 L 281,649 L 280,648 L 279,649 L 273,643 L 273,642 L 270,639 L 270,638 L 267,635 L 267,634 L 265,632 L 265,631 L 263,629 L 263,628 L 262,627 L 262,626 L 261,625 L 261,624 L 260,623 L 260,622 L 259,621 L 259,620 L 258,619 L 258,618 L 257,617 L 257,615 L 256,615 L 256,618 L 254,620 L 254,621 L 247,628 L 247,629 L 246,630 L 246,632 L 247,633 L 247,634 L 248,635 L 247,636 L 248,635 L 253,640 L 253,641 L 255,643 L 256,643 L 269,656 L 270,656 L 283,669 L 283,671 L 284,672 L 284,673 L 283,674 L 283,676 L 276,683 L 275,683 L 273,685 L 274,685 L 275,684 L 287,684 L 288,685 L 289,685 L 290,686 L 292,686 L 296,690 L 296,693 L 295,694 L 295,695 L 294,696 L 293,696 L 291,698 L 290,698 L 289,699 L 288,699 L 287,700 L 286,700 L 284,702 L 283,702 L 282,703 L 282,704 L 281,705 L 281,710 L 285,714 L 286,714 L 287,715 L 289,715 L 290,716 L 293,716 L 294,715 L 296,715 L 297,714 L 298,714 L 299,713 L 300,713 L 301,712 L 302,712 L 303,711 L 304,711 L 305,710 L 306,710 L 308,708 L 309,708 L 310,707 L 311,707 L 312,706 L 313,706 L 314,705 L 315,705 L 316,704 L 317,704 L 318,703 L 319,703 L 320,704 L 319,705 L 319,706 L 318,707 L 318,712 L 319,713 L 319,714 L 323,718 L 323,720 L 324,721 L 324,729 L 323,730 L 323,732 L 322,733 L 322,735 L 321,736 L 321,738 L 322,737 L 323,737 L 324,736 L 325,736 L 327,734 L 328,734 L 329,733 L 329,732 L 331,730 L 331,728 L 332,727 L 332,719 L 331,718 L 331,715 L 330,714 L 330,705 L 331,704 L 331,696 L 330,695 L 329,695 L 328,694 L 327,694 L 326,693 L 324,693 L 323,692 L 319,692 L 318,691 L 316,691 L 315,690 L 314,690 L 312,688 L 312,687 L 311,686 L 311,684 L 310,683 L 310,681 L 308,679 L 308,678 L 307,678 L 306,677 L 305,677 L 299,671 L 299,670 L 297,668 L 297,666 L 296,665 L 296,662 L 293,662 L 290,659 L 289,659 L 281,651 L 282,650 L 281,649 L 282,648 L 283,648 L 291,656 L 292,656 L 295,659 L 296,659 L 298,661 L 299,661 L 302,664 L 303,664 L 304,665 L 305,665 L 307,667 L 308,667 L 309,668 L 310,668 L 311,669 L 312,669 L 314,671 L 315,671 L 316,672 L 317,672 L 318,673 L 319,673 L 320,674 L 321,674 L 322,675 L 324,675 L 325,676 L 326,676 L 327,677 L 328,677 L 329,678 L 331,678 L 332,679 L 333,679 L 334,680 L 336,680 L 337,681 L 339,681 L 340,682 L 342,682 L 343,683 L 345,683 L 346,684 L 349,684 L 350,685 L 353,685 L 354,686 L 357,686 L 358,687 L 362,687 L 363,688 L 367,688 L 368,689 L 374,689 L 375,690 L 386,690 L 387,691 L 401,691 L 402,690 L 413,690 L 414,689 L 420,689 L 421,688 L 425,688 L 426,687 L 430,687 L 431,686 L 434,686 L 435,685 L 437,685 L 438,684 L 440,684 L 441,683 L 443,683 L 444,682 L 446,682 L 447,681 L 449,681 L 450,680 L 451,680 L 452,679 L 454,679 L 455,678 L 456,678 L 457,677 L 458,677 L 459,676 L 460,676 L 461,675 L 462,675 L 463,674 L 464,674 L 465,673 L 466,673 L 467,672 L 468,672 L 470,670 L 471,670 L 473,668 L 474,668 L 476,666 L 477,666 L 479,664 L 480,664 L 483,661 L 484,661 L 488,657 L 489,657 L 506,640 L 506,639 L 510,635 L 510,634 L 513,631 L 513,630 L 515,628 L 515,627 L 517,625 L 517,624 L 518,623 L 518,622 L 520,620 L 520,619 L 521,618 L 521,617 L 522,616 L 522,615 L 523,614 L 523,613 L 524,612 L 524,611 L 525,610 L 525,609 L 526,608 L 526,607 L 527,606 L 527,605 L 528,604 L 528,602 L 529,601 L 529,600 L 530,599 L 530,597 L 531,596 L 531,594 L 532,593 L 532,591 L 533,590 L 533,587 L 534,586 L 534,583 L 535,582 L 535,579 L 536,578 L 536,574 L 537,573 L 537,568 L 538,567 L 538,560 L 539,559 L 539,527 L 538,526 L 538,518 L 537,517 L 537,512 L 536,511 L 536,506 L 535,505 L 535,501 L 534,500 L 534,497 L 533,496 L 533,493 L 532,492 L 532,489 L 531,488 L 531,485 L 530,484 L 530,482 L 529,481 L 529,479 L 528,478 L 528,475 L 527,474 L 527,473 L 526,472 L 526,470 L 525,469 L 525,467 L 524,466 L 524,465 L 523,464 L 523,462 L 522,461 L 522,460 L 521,459 L 521,458 L 520,457 L 520,456 L 519,455 L 519,454 L 518,453 L 518,452 L 517,451 L 517,450 L 516,449 L 516,448 L 514,446 L 514,445 L 513,444 L 513,443 L 511,441 L 511,440 L 508,437 L 508,436 L 505,433 L 505,432 L 501,428 L 501,427 L 481,407 L 480,407 L 475,402 L 474,402 L 470,398 L 469,398 L 466,395 L 465,395 L 463,393 L 462,393 L 459,390 L 458,390 L 456,388 L 455,388 L 453,386 L 452,386 L 450,384 L 449,384 L 447,382 L 446,382 L 444,380 L 443,380 L 442,379 L 441,379 L 439,377 L 438,377 L 437,376 L 436,376 L 434,374 L 433,374 L 432,373 L 431,373 L 429,371 L 428,371 L 427,370 L 426,370 L 424,368 L 423,368 L 422,367 L 421,367 L 420,366 L 419,366 L 418,365 L 417,365 L 415,363 L 414,363 L 413,362 L 412,362 L 411,361 L 410,361 L 409,360 L 408,360 L 407,359 L 406,359 L 404,357 L 402,357 L 400,355 L 399,355 L 398,354 L 397,354 L 396,353 L 395,353 L 394,352 L 393,352 L 392,351 L 391,351 L 389,349 L 388,349 L 387,348 L 386,348 L 385,347 L 384,347 L 383,346 L 382,346 L 381,345 L 380,345 L 378,343 L 377,343 L 376,342 L 375,342 L 374,341 L 373,341 L 372,340 L 371,340 L 370,339 L 369,339 L 367,337 L 366,337 L 365,336 L 364,336 L 362,334 L 361,334 L 360,333 L 359,333 L 357,331 L 356,331 L 353,328 L 352,328 L 348,324 L 347,324 L 336,313 L 336,312 L 332,308 L 332,307 L 329,304 L 329,303 L 327,301 L 327,300 L 325,298 L 325,297 L 324,296 L 324,295 L 323,294 L 323,293 L 322,292 L 322,291 L 321,290 L 321,289 L 320,288 L 320,287 L 319,286 L 319,284 L 318,283 L 318,281 L 317,280 L 317,279 L 316,278 L 316,275 L 315,274 L 315,272 L 314,271 L 314,267 L 313,266 L 313,259 L 312,258 L 312,249 L 313,248 L 313,242 L 314,241 L 314,237 L 315,236 L 315,234 L 316,233 L 316,231 L 317,230 L 317,229 L 318,228 L 318,227 L 319,226 L 319,225 L 320,224 L 320,223 L 321,222 L 321,221 L 323,219 L 323,218 L 326,215 L 326,214 L 333,207 L 334,207 L 338,203 L 339,203 L 341,201 L 342,201 L 344,199 L 345,199 L 346,198 L 347,198 L 348,197 L 349,197 L 350,196 L 351,196 L 352,195 L 353,195 L 354,194 L 356,194 L 357,193 L 359,193 L 359,190 L 358,189 L 358,187 L 357,186 L 357,181 L 356,180 L 356,172 L 357,171 L 357,168 L 358,167 L 358,166 L 359,165 L 359,164 L 363,160 L 364,160 L 365,159 L 366,159 L 367,158 L 370,158 L 370,157 L 365,152 L 364,152 L 361,149 L 360,149 L 358,147 L 357,147 L 356,146 L 355,146 L 353,144 L 352,144 L 351,143 L 349,143 L 348,142 L 347,142 L 346,141 L 345,141 L 344,140 L 343,140 L 342,139 L 341,139 L 340,138 Z"/>
<path d="M 274,136 L 273,137 L 269,137 L 268,138 L 264,138 L 263,139 L 262,139 L 275,139 L 276,140 L 280,140 L 281,141 L 282,141 L 283,142 L 284,142 L 288,146 L 287,147 L 284,147 L 283,146 L 276,146 L 275,145 L 261,145 L 260,146 L 257,146 L 256,147 L 254,147 L 253,148 L 252,148 L 251,149 L 251,150 L 252,149 L 258,149 L 259,148 L 263,148 L 264,149 L 268,149 L 269,150 L 270,150 L 271,151 L 272,151 L 276,155 L 275,156 L 273,156 L 272,155 L 258,155 L 257,156 L 254,156 L 253,157 L 251,157 L 250,158 L 249,158 L 248,159 L 247,159 L 246,160 L 245,160 L 242,163 L 241,163 L 239,165 L 239,166 L 240,165 L 241,165 L 243,163 L 244,163 L 245,162 L 247,162 L 248,161 L 252,161 L 253,160 L 256,160 L 257,161 L 261,161 L 262,162 L 263,162 L 264,163 L 265,163 L 268,166 L 268,170 L 267,171 L 266,171 L 265,172 L 264,172 L 263,173 L 256,173 L 255,174 L 242,174 L 241,175 L 236,175 L 235,176 L 233,176 L 232,177 L 231,177 L 230,178 L 229,178 L 228,179 L 227,179 L 226,180 L 225,180 L 221,184 L 221,185 L 219,187 L 221,187 L 223,185 L 225,185 L 226,184 L 229,184 L 230,183 L 234,183 L 235,182 L 245,182 L 246,183 L 248,183 L 251,186 L 251,188 L 247,192 L 245,192 L 244,193 L 243,193 L 242,194 L 240,194 L 239,195 L 237,195 L 236,196 L 234,196 L 233,197 L 231,197 L 230,198 L 228,198 L 227,199 L 226,199 L 225,200 L 223,200 L 222,201 L 221,201 L 220,202 L 218,202 L 217,203 L 216,203 L 215,204 L 214,204 L 213,205 L 212,205 L 210,207 L 209,207 L 206,210 L 205,210 L 201,214 L 201,215 L 199,217 L 199,218 L 198,219 L 199,219 L 202,216 L 203,216 L 204,215 L 205,215 L 206,214 L 207,214 L 208,213 L 209,213 L 210,212 L 211,212 L 212,211 L 214,211 L 215,210 L 217,210 L 218,209 L 221,209 L 222,208 L 228,208 L 229,207 L 230,208 L 233,208 L 235,210 L 235,212 L 230,217 L 229,217 L 228,218 L 227,218 L 225,220 L 224,220 L 222,222 L 221,222 L 220,223 L 219,223 L 217,225 L 216,225 L 213,228 L 212,228 L 200,240 L 200,241 L 198,243 L 198,244 L 197,245 L 197,246 L 195,248 L 195,249 L 194,250 L 194,251 L 193,252 L 193,254 L 192,255 L 192,256 L 191,257 L 191,260 L 191,259 L 192,258 L 192,257 L 193,256 L 193,255 L 194,254 L 194,253 L 195,252 L 195,251 L 200,246 L 200,245 L 201,244 L 202,244 L 202,243 L 203,242 L 204,242 L 208,238 L 209,238 L 210,237 L 211,237 L 213,235 L 215,235 L 216,234 L 218,234 L 219,233 L 225,233 L 227,235 L 227,236 L 228,237 L 228,238 L 227,239 L 227,241 L 226,242 L 226,243 L 225,244 L 225,245 L 219,251 L 218,251 L 217,252 L 216,252 L 214,254 L 213,254 L 210,257 L 209,257 L 202,264 L 202,265 L 199,268 L 199,269 L 198,270 L 198,271 L 196,273 L 196,274 L 195,275 L 195,276 L 194,277 L 194,278 L 193,279 L 193,280 L 192,281 L 192,283 L 191,284 L 191,285 L 190,286 L 190,288 L 189,289 L 189,291 L 188,292 L 188,295 L 187,296 L 187,300 L 186,301 L 186,305 L 185,306 L 185,310 L 186,310 L 186,307 L 187,306 L 187,302 L 188,301 L 188,299 L 189,298 L 189,296 L 190,295 L 190,293 L 191,292 L 191,291 L 192,290 L 192,289 L 193,288 L 193,287 L 194,286 L 194,285 L 195,284 L 195,283 L 197,281 L 197,280 L 201,276 L 201,275 L 204,272 L 205,272 L 208,269 L 209,269 L 211,267 L 212,267 L 213,266 L 214,266 L 215,265 L 216,265 L 217,264 L 218,264 L 219,263 L 221,263 L 222,264 L 216,270 L 216,271 L 212,275 L 212,276 L 209,279 L 209,280 L 207,282 L 207,283 L 205,285 L 205,286 L 204,287 L 204,288 L 203,289 L 203,290 L 202,291 L 202,292 L 201,293 L 201,294 L 200,295 L 200,297 L 199,298 L 199,299 L 198,300 L 198,301 L 199,301 L 199,300 L 200,299 L 200,298 L 202,296 L 202,295 L 205,292 L 205,291 L 215,281 L 216,281 L 218,279 L 219,279 L 220,278 L 221,278 L 222,277 L 225,277 L 226,276 L 227,277 L 228,277 L 229,278 L 219,288 L 219,289 L 217,291 L 217,292 L 215,294 L 215,295 L 213,297 L 213,298 L 212,299 L 212,300 L 211,301 L 211,302 L 210,303 L 210,304 L 209,305 L 209,306 L 208,307 L 208,308 L 207,309 L 207,311 L 206,312 L 206,313 L 205,314 L 205,317 L 204,318 L 204,321 L 203,322 L 203,333 L 204,334 L 205,334 L 205,329 L 206,328 L 206,326 L 207,325 L 207,324 L 208,323 L 208,322 L 209,321 L 209,320 L 210,319 L 210,318 L 211,317 L 211,316 L 213,314 L 213,313 L 215,311 L 215,310 L 218,307 L 218,306 L 222,302 L 223,302 L 225,300 L 229,300 L 231,302 L 231,307 L 230,308 L 230,310 L 229,311 L 229,312 L 228,313 L 228,314 L 227,315 L 226,315 L 227,316 L 226,317 L 226,318 L 224,320 L 224,321 L 223,322 L 223,323 L 222,324 L 222,325 L 221,326 L 221,327 L 220,328 L 220,329 L 219,330 L 219,332 L 218,333 L 218,335 L 217,336 L 217,341 L 216,342 L 216,346 L 217,347 L 217,351 L 218,352 L 218,354 L 219,355 L 219,356 L 220,357 L 220,358 L 221,359 L 221,360 L 222,361 L 222,362 L 223,362 L 223,361 L 222,360 L 222,358 L 221,357 L 221,347 L 222,346 L 222,343 L 223,342 L 223,340 L 224,339 L 224,337 L 225,336 L 225,335 L 227,333 L 227,332 L 229,330 L 229,329 L 235,323 L 236,323 L 237,322 L 240,322 L 241,323 L 241,325 L 242,326 L 242,335 L 241,336 L 241,342 L 240,343 L 240,351 L 239,352 L 239,357 L 240,358 L 240,363 L 241,364 L 241,365 L 242,366 L 242,367 L 243,368 L 243,369 L 247,373 L 247,372 L 246,371 L 246,370 L 245,369 L 245,367 L 244,366 L 244,359 L 245,358 L 245,356 L 246,355 L 246,354 L 247,353 L 247,352 L 249,350 L 249,349 L 251,347 L 251,346 L 253,344 L 253,343 L 255,341 L 255,340 L 256,339 L 256,336 L 257,335 L 257,330 L 255,328 L 255,327 L 254,326 L 254,325 L 253,324 L 253,323 L 252,322 L 252,320 L 251,319 L 251,318 L 250,317 L 250,315 L 249,314 L 249,312 L 248,311 L 248,309 L 247,308 L 247,305 L 246,304 L 246,300 L 245,299 L 245,293 L 244,292 L 244,261 L 245,260 L 245,254 L 246,253 L 246,248 L 247,247 L 247,243 L 248,242 L 248,239 L 249,238 L 249,235 L 250,234 L 250,231 L 251,230 L 251,228 L 252,227 L 252,224 L 253,223 L 253,221 L 254,220 L 254,218 L 255,217 L 255,216 L 256,215 L 256,213 L 257,212 L 257,211 L 258,210 L 258,209 L 259,208 L 259,207 L 260,206 L 260,205 L 261,204 L 261,203 L 262,202 L 262,201 L 263,200 L 263,199 L 265,197 L 265,196 L 266,195 L 266,194 L 268,192 L 268,191 L 270,189 L 270,188 L 273,185 L 273,184 L 277,180 L 277,179 L 284,172 L 284,171 L 293,162 L 294,162 L 300,156 L 301,156 L 304,153 L 305,153 L 308,150 L 309,150 L 311,148 L 312,148 L 313,147 L 314,147 L 316,145 L 317,145 L 318,146 L 317,145 L 318,144 L 319,144 L 320,143 L 321,143 L 322,142 L 323,142 L 324,141 L 325,141 L 326,140 L 327,140 L 328,139 L 331,139 L 332,138 L 329,138 L 328,139 L 312,139 L 311,138 L 303,138 L 302,137 L 295,137 L 294,136 Z"/>
<path d="M 444,126 Z"/>
<path d="M 333,77 L 334,78 L 334,79 L 335,80 L 335,81 L 336,82 L 336,83 L 338,85 L 338,86 L 342,90 L 342,91 L 345,94 L 346,94 L 349,97 L 350,97 L 351,98 L 352,98 L 353,99 L 354,99 L 355,100 L 356,100 L 357,101 L 359,101 L 360,102 L 361,102 L 362,103 L 365,103 L 366,104 L 369,104 L 370,105 L 374,105 L 375,106 L 379,106 L 380,107 L 384,107 L 385,108 L 388,108 L 389,109 L 392,109 L 393,110 L 394,110 L 395,111 L 397,111 L 398,112 L 399,112 L 400,113 L 401,113 L 402,114 L 403,114 L 405,116 L 406,116 L 412,122 L 415,122 L 416,123 L 424,123 L 420,119 L 419,119 L 416,116 L 415,116 L 413,114 L 412,114 L 410,112 L 408,112 L 407,111 L 408,110 L 412,110 L 413,111 L 414,111 L 415,112 L 416,112 L 417,113 L 418,113 L 419,114 L 420,114 L 421,115 L 422,115 L 424,117 L 425,117 L 427,119 L 428,119 L 429,120 L 430,120 L 432,122 L 434,122 L 435,123 L 441,123 L 442,124 L 446,124 L 447,125 L 449,125 L 450,126 L 451,126 L 452,127 L 453,127 L 455,129 L 454,130 L 450,130 L 449,129 L 445,129 L 444,128 L 438,128 L 437,127 L 431,127 L 430,126 L 422,126 L 421,125 L 413,125 L 414,125 L 416,127 L 417,127 L 420,130 L 421,130 L 429,138 L 429,139 L 430,140 L 430,141 L 431,142 L 431,143 L 432,144 L 431,145 L 430,145 L 429,144 L 423,144 L 422,145 L 416,145 L 415,146 L 407,146 L 406,147 L 405,146 L 401,146 L 400,145 L 399,145 L 398,144 L 397,144 L 394,141 L 393,141 L 388,136 L 388,135 L 383,130 L 382,130 L 381,129 L 382,128 L 384,128 L 386,130 L 387,130 L 395,138 L 396,138 L 398,140 L 399,140 L 400,141 L 401,141 L 402,142 L 403,142 L 404,143 L 408,143 L 409,144 L 413,144 L 414,143 L 419,143 L 420,142 L 422,142 L 423,141 L 422,140 L 422,139 L 421,138 L 421,137 L 419,135 L 419,134 L 411,126 L 410,126 L 408,124 L 407,124 L 406,123 L 405,123 L 404,122 L 403,122 L 402,121 L 401,121 L 400,120 L 399,120 L 398,119 L 396,119 L 395,118 L 393,118 L 392,117 L 389,117 L 388,116 L 384,116 L 383,115 L 376,115 L 375,114 L 338,114 L 337,115 L 326,115 L 325,116 L 314,116 L 313,117 L 301,117 L 300,118 L 284,118 L 283,117 L 277,117 L 276,116 L 273,116 L 272,115 L 270,115 L 269,114 L 267,114 L 266,113 L 265,113 L 264,112 L 263,112 L 262,111 L 260,111 L 258,109 L 257,109 L 256,108 L 255,108 L 253,106 L 252,106 L 249,103 L 248,103 L 235,90 L 235,89 L 232,86 L 232,85 L 231,84 L 231,85 L 232,86 L 232,88 L 233,89 L 233,91 L 234,92 L 234,94 L 235,95 L 235,96 L 236,97 L 236,98 L 237,99 L 237,100 L 239,102 L 239,103 L 242,106 L 242,107 L 248,113 L 249,113 L 252,116 L 253,116 L 255,118 L 256,118 L 257,119 L 258,119 L 260,121 L 261,121 L 262,122 L 263,122 L 264,123 L 266,123 L 267,124 L 268,124 L 269,125 L 271,125 L 272,126 L 274,126 L 275,127 L 277,127 L 278,128 L 280,128 L 281,129 L 284,129 L 285,130 L 289,130 L 290,131 L 295,131 L 296,132 L 303,132 L 304,133 L 345,133 L 346,134 L 350,134 L 351,135 L 353,135 L 354,136 L 356,136 L 357,137 L 358,137 L 359,138 L 360,138 L 361,139 L 362,139 L 363,140 L 364,140 L 366,142 L 367,142 L 378,153 L 378,154 L 380,156 L 380,158 L 379,159 L 377,159 L 375,161 L 374,161 L 369,166 L 369,167 L 368,168 L 368,169 L 367,170 L 367,171 L 366,172 L 366,173 L 365,174 L 365,176 L 364,177 L 364,179 L 363,180 L 363,184 L 362,185 L 362,188 L 363,187 L 364,187 L 365,186 L 367,186 L 368,185 L 370,185 L 371,184 L 374,184 L 375,183 L 379,183 L 380,182 L 392,182 L 393,183 L 397,183 L 398,184 L 400,184 L 401,185 L 402,185 L 404,187 L 405,187 L 407,189 L 407,190 L 412,195 L 412,196 L 415,199 L 415,200 L 421,206 L 421,207 L 424,210 L 423,211 L 422,211 L 421,210 L 420,210 L 419,209 L 418,209 L 406,197 L 406,196 L 405,196 L 401,192 L 400,192 L 398,190 L 397,190 L 396,189 L 394,189 L 393,188 L 391,188 L 390,187 L 386,187 L 385,188 L 384,188 L 383,189 L 383,190 L 380,193 L 380,194 L 379,195 L 379,196 L 378,197 L 378,198 L 377,199 L 377,200 L 376,201 L 376,204 L 375,205 L 375,217 L 376,218 L 376,221 L 377,222 L 377,224 L 378,225 L 378,226 L 379,227 L 379,229 L 380,230 L 380,231 L 381,231 L 382,230 L 383,230 L 384,229 L 385,229 L 386,228 L 387,228 L 388,227 L 389,227 L 390,226 L 392,226 L 393,225 L 397,225 L 398,224 L 410,224 L 411,225 L 415,225 L 416,226 L 420,226 L 421,227 L 423,227 L 424,228 L 426,228 L 427,229 L 429,229 L 430,230 L 431,230 L 432,231 L 434,231 L 435,232 L 436,232 L 437,233 L 438,233 L 439,234 L 440,234 L 441,235 L 442,235 L 443,236 L 444,236 L 445,237 L 446,237 L 448,239 L 449,239 L 450,240 L 451,240 L 453,242 L 454,242 L 458,246 L 458,247 L 459,248 L 459,249 L 460,250 L 460,251 L 461,252 L 461,253 L 462,254 L 462,255 L 464,257 L 464,258 L 471,265 L 472,265 L 473,266 L 480,266 L 481,265 L 482,266 L 482,270 L 481,271 L 481,273 L 480,274 L 480,275 L 478,277 L 478,278 L 476,280 L 477,280 L 478,279 L 479,279 L 481,277 L 482,277 L 483,276 L 483,275 L 485,273 L 485,271 L 486,270 L 486,268 L 487,267 L 488,268 L 488,272 L 487,273 L 487,274 L 486,275 L 486,276 L 481,281 L 481,282 L 482,282 L 483,281 L 485,281 L 487,279 L 488,279 L 489,278 L 489,277 L 491,275 L 491,274 L 492,273 L 492,272 L 493,271 L 493,266 L 494,265 L 497,265 L 498,264 L 499,264 L 500,263 L 501,263 L 501,262 L 503,260 L 503,256 L 504,255 L 503,254 L 503,248 L 502,247 L 502,244 L 501,243 L 501,241 L 500,240 L 500,238 L 499,237 L 499,236 L 498,235 L 499,234 L 500,234 L 502,236 L 503,236 L 504,237 L 505,237 L 507,239 L 508,239 L 509,240 L 510,240 L 511,241 L 512,241 L 513,242 L 514,242 L 515,243 L 516,243 L 517,244 L 519,244 L 520,245 L 523,245 L 524,246 L 539,246 L 540,245 L 542,245 L 543,244 L 544,244 L 545,243 L 546,243 L 547,242 L 548,242 L 550,240 L 551,240 L 554,237 L 554,236 L 555,235 L 555,234 L 556,233 L 556,232 L 557,231 L 557,229 L 558,228 L 558,225 L 559,224 L 559,221 L 560,220 L 560,217 L 561,216 L 561,215 L 562,214 L 562,213 L 565,210 L 566,211 L 565,210 L 568,207 L 569,207 L 570,206 L 571,206 L 572,205 L 574,205 L 575,204 L 579,204 L 580,203 L 582,203 L 583,204 L 587,204 L 588,205 L 589,205 L 590,206 L 591,206 L 592,207 L 593,207 L 597,211 L 598,211 L 601,214 L 601,215 L 605,219 L 605,220 L 606,220 L 606,219 L 604,217 L 604,216 L 601,213 L 601,212 L 600,211 L 601,210 L 600,211 L 595,206 L 594,206 L 592,204 L 591,204 L 589,202 L 588,202 L 587,201 L 586,201 L 585,200 L 583,200 L 582,199 L 577,199 L 576,198 L 575,199 L 571,199 L 570,200 L 569,200 L 568,201 L 567,201 L 565,203 L 564,203 L 558,209 L 558,210 L 557,211 L 557,212 L 555,214 L 555,216 L 554,217 L 554,218 L 553,219 L 553,221 L 552,222 L 552,224 L 551,225 L 551,227 L 550,228 L 550,229 L 549,230 L 549,231 L 547,233 L 547,234 L 545,236 L 544,236 L 543,237 L 542,237 L 541,238 L 537,238 L 536,239 L 527,239 L 526,238 L 523,238 L 522,237 L 520,237 L 519,236 L 518,236 L 517,235 L 516,235 L 515,234 L 514,234 L 512,232 L 511,232 L 510,231 L 509,231 L 499,221 L 499,220 L 494,215 L 494,214 L 489,209 L 489,208 L 485,204 L 484,204 L 481,201 L 480,201 L 478,199 L 477,199 L 476,198 L 473,198 L 472,197 L 471,197 L 472,198 L 473,198 L 475,200 L 476,200 L 485,209 L 485,210 L 486,211 L 486,212 L 487,213 L 487,214 L 486,215 L 481,210 L 480,210 L 478,208 L 477,208 L 475,206 L 474,206 L 473,205 L 472,205 L 471,204 L 470,204 L 469,203 L 467,203 L 466,202 L 463,202 L 462,201 L 451,201 L 450,202 L 446,202 L 446,203 L 455,203 L 456,204 L 458,204 L 459,205 L 461,205 L 462,206 L 464,206 L 465,207 L 466,207 L 468,209 L 469,209 L 470,210 L 471,210 L 473,212 L 474,212 L 479,217 L 480,217 L 490,227 L 491,227 L 495,231 L 496,231 L 499,234 L 498,235 L 498,237 L 499,238 L 499,239 L 498,240 L 498,243 L 497,244 L 497,245 L 495,247 L 494,247 L 493,248 L 487,248 L 486,247 L 486,246 L 487,245 L 487,236 L 486,235 L 486,233 L 485,232 L 485,229 L 484,229 L 484,233 L 483,234 L 483,236 L 481,238 L 481,239 L 479,241 L 479,242 L 476,245 L 475,245 L 473,247 L 472,246 L 472,244 L 468,240 L 467,240 L 465,238 L 464,238 L 456,230 L 456,229 L 454,227 L 454,226 L 452,224 L 452,223 L 450,221 L 450,220 L 449,219 L 449,218 L 447,216 L 447,215 L 446,214 L 446,213 L 445,212 L 445,211 L 443,209 L 443,208 L 442,207 L 442,206 L 441,205 L 441,204 L 439,202 L 439,201 L 438,200 L 438,199 L 437,198 L 437,197 L 436,196 L 436,195 L 435,194 L 435,193 L 434,192 L 434,191 L 436,189 L 437,189 L 438,188 L 439,188 L 440,187 L 441,187 L 442,186 L 443,186 L 444,187 L 445,187 L 446,188 L 447,188 L 448,189 L 449,189 L 450,190 L 451,190 L 452,191 L 453,191 L 454,192 L 458,192 L 459,193 L 464,193 L 465,192 L 467,192 L 468,191 L 470,191 L 472,189 L 473,189 L 476,186 L 478,186 L 479,187 L 481,187 L 482,188 L 488,188 L 489,189 L 493,189 L 494,188 L 496,190 L 496,191 L 499,194 L 500,194 L 502,196 L 504,196 L 505,197 L 509,197 L 510,196 L 511,196 L 512,197 L 512,201 L 513,202 L 513,205 L 512,206 L 512,211 L 511,212 L 511,215 L 510,216 L 510,219 L 509,220 L 509,222 L 508,223 L 509,223 L 510,222 L 511,222 L 518,215 L 518,214 L 520,212 L 520,211 L 521,210 L 521,209 L 522,208 L 522,207 L 523,206 L 523,204 L 524,203 L 524,201 L 525,200 L 525,197 L 526,196 L 526,195 L 527,194 L 530,194 L 531,193 L 533,193 L 534,192 L 537,192 L 538,191 L 540,193 L 540,201 L 539,202 L 539,206 L 538,207 L 538,209 L 537,210 L 537,212 L 536,213 L 536,214 L 539,211 L 539,210 L 541,208 L 541,207 L 542,206 L 542,205 L 543,204 L 543,203 L 544,202 L 544,201 L 545,200 L 545,198 L 546,197 L 546,193 L 547,192 L 547,190 L 549,188 L 550,188 L 552,186 L 552,184 L 553,183 L 553,181 L 552,180 L 552,178 L 550,176 L 550,175 L 546,171 L 549,168 L 549,166 L 550,165 L 550,158 L 549,157 L 549,155 L 548,155 L 548,156 L 541,163 L 540,163 L 539,164 L 538,163 L 537,163 L 536,162 L 535,162 L 534,161 L 519,161 L 518,162 L 516,162 L 515,163 L 512,163 L 511,162 L 510,162 L 509,161 L 507,161 L 506,160 L 504,160 L 503,159 L 493,159 L 488,154 L 488,153 L 485,150 L 485,149 L 486,148 L 486,147 L 485,146 L 485,145 L 484,144 L 484,143 L 483,142 L 483,141 L 482,141 L 481,140 L 480,140 L 478,138 L 477,138 L 476,137 L 474,137 L 473,136 L 472,136 L 471,135 L 469,135 L 468,134 L 466,134 L 465,133 L 463,133 L 462,132 L 459,132 L 458,131 L 455,131 L 454,130 L 455,129 L 456,129 L 456,128 L 453,125 L 453,124 L 449,120 L 449,119 L 447,119 L 444,116 L 443,116 L 441,114 L 440,114 L 439,113 L 438,113 L 436,111 L 435,111 L 434,110 L 432,110 L 431,109 L 430,109 L 429,108 L 427,108 L 426,107 L 424,107 L 423,106 L 421,106 L 420,105 L 417,105 L 416,104 L 413,104 L 412,103 L 408,103 L 407,102 L 404,102 L 403,101 L 399,101 L 398,100 L 393,100 L 392,99 L 387,99 L 386,98 L 382,98 L 381,97 L 377,97 L 376,96 L 372,96 L 371,95 L 367,95 L 366,94 L 363,94 L 362,93 L 360,93 L 359,92 L 357,92 L 356,91 L 354,91 L 353,90 L 351,90 L 350,89 L 349,89 L 348,88 L 347,88 L 346,87 L 345,87 L 344,86 L 343,86 L 341,84 L 340,84 L 335,79 L 335,78 L 334,77 Z"/>
</g>
</svg>